<mxfile host="app.diagrams.net" modified="2024-04-03T03:18:47.128Z" agent="Mozilla/5.0 (Windows NT 10.0; Win64; x64) AppleWebKit/537.36 (KHTML, like Gecko) Chrome/123.0.0.0 Safari/537.36 Edg/123.0.0.0" etag="9r-A8skgEBw2qMauaKxG" version="24.2.1" type="device">
  <diagram id="5D60qyDk76QxoSp3qYzc" name="第 1 页">
    <mxGraphModel dx="2782" dy="1252" grid="1" gridSize="10" guides="1" tooltips="1" connect="1" arrows="1" fold="1" page="1" pageScale="1" pageWidth="827" pageHeight="1169" math="0" shadow="0">
      <root>
        <mxCell id="0" />
        <mxCell id="1" parent="0" />
        <mxCell id="XCWa_HtbkVox2BqZ_yOD-9" value="JDBC 标准" style="swimlane;rounded=1;sketch=1;fontFamily=霞鹜文楷;fillColor=#f8cecc;strokeColor=#b85450;fillStyle=solid;fontSize=15;" parent="1" vertex="1">
          <mxGeometry x="-230" y="105" width="780" height="350" as="geometry">
            <mxRectangle x="-230" y="105" width="100" height="30" as="alternateBounds" />
          </mxGeometry>
        </mxCell>
        <mxCell id="lrvwJABdegaYlgPyfwO3-3" value="«interface»&lt;br style=&quot;font-size: 15px;&quot;&gt;&lt;b style=&quot;font-size: 15px;&quot;&gt;Connection&lt;/b&gt;" style="html=1;sketch=1;rounded=1;fillColor=#dae8fc;strokeColor=#6c8ebf;fontFamily=霞鹜文楷;fontSize=15;" parent="XCWa_HtbkVox2BqZ_yOD-9" vertex="1">
          <mxGeometry x="230" y="280" width="140" height="60" as="geometry" />
        </mxCell>
        <mxCell id="lrvwJABdegaYlgPyfwO3-5" value="«interface»&lt;br style=&quot;font-size: 15px;&quot;&gt;&lt;b style=&quot;font-size: 15px;&quot;&gt;Statement&lt;/b&gt;" style="html=1;sketch=1;rounded=1;fillColor=#dae8fc;strokeColor=#6c8ebf;fontFamily=霞鹜文楷;fontSize=15;" parent="XCWa_HtbkVox2BqZ_yOD-9" vertex="1">
          <mxGeometry x="430" y="160" width="140" height="60" as="geometry" />
        </mxCell>
        <mxCell id="lrvwJABdegaYlgPyfwO3-2" style="edgeStyle=orthogonalEdgeStyle;rounded=0;sketch=1;orthogonalLoop=1;jettySize=auto;html=1;exitX=0.5;exitY=0;exitDx=0;exitDy=0;entryX=0;entryY=0.5;entryDx=0;entryDy=0;" parent="XCWa_HtbkVox2BqZ_yOD-9" source="lrvwJABdegaYlgPyfwO3-3" target="lrvwJABdegaYlgPyfwO3-5" edge="1">
          <mxGeometry relative="1" as="geometry" />
        </mxCell>
        <mxCell id="lrvwJABdegaYlgPyfwO3-6" style="edgeStyle=orthogonalEdgeStyle;rounded=0;orthogonalLoop=1;jettySize=auto;html=1;exitX=0.5;exitY=0;exitDx=0;exitDy=0;entryX=0.5;entryY=1;entryDx=0;entryDy=0;shape=arrow;sketch=1;" parent="XCWa_HtbkVox2BqZ_yOD-9" source="lrvwJABdegaYlgPyfwO3-8" target="lrvwJABdegaYlgPyfwO3-5" edge="1">
          <mxGeometry relative="1" as="geometry" />
        </mxCell>
        <mxCell id="lrvwJABdegaYlgPyfwO3-8" value="«interface»&lt;br style=&quot;font-size: 15px;&quot;&gt;&lt;b style=&quot;font-size: 15px;&quot;&gt;PreparedStatement&lt;/b&gt;" style="html=1;sketch=1;rounded=1;fillColor=#dae8fc;strokeColor=#6c8ebf;fontFamily=霞鹜文楷;fontSize=15;" parent="XCWa_HtbkVox2BqZ_yOD-9" vertex="1">
          <mxGeometry x="430" y="280" width="140" height="60" as="geometry" />
        </mxCell>
        <mxCell id="lrvwJABdegaYlgPyfwO3-1" style="edgeStyle=orthogonalEdgeStyle;rounded=0;sketch=1;orthogonalLoop=1;jettySize=auto;html=1;exitX=1;exitY=0.5;exitDx=0;exitDy=0;entryX=0;entryY=0.5;entryDx=0;entryDy=0;" parent="XCWa_HtbkVox2BqZ_yOD-9" source="lrvwJABdegaYlgPyfwO3-3" target="lrvwJABdegaYlgPyfwO3-8" edge="1">
          <mxGeometry relative="1" as="geometry" />
        </mxCell>
        <mxCell id="lrvwJABdegaYlgPyfwO3-9" value="«interface»&lt;br style=&quot;font-size: 15px;&quot;&gt;&lt;b style=&quot;font-size: 15px;&quot;&gt;ResultSet&lt;/b&gt;" style="html=1;sketch=1;rounded=1;fillColor=#dae8fc;strokeColor=#6c8ebf;fontFamily=霞鹜文楷;fontSize=15;" parent="XCWa_HtbkVox2BqZ_yOD-9" vertex="1">
          <mxGeometry x="630" y="280" width="140" height="60" as="geometry" />
        </mxCell>
        <mxCell id="lrvwJABdegaYlgPyfwO3-4" style="edgeStyle=orthogonalEdgeStyle;rounded=0;sketch=1;orthogonalLoop=1;jettySize=auto;html=1;exitX=1;exitY=0.5;exitDx=0;exitDy=0;entryX=0.5;entryY=0;entryDx=0;entryDy=0;" parent="XCWa_HtbkVox2BqZ_yOD-9" source="lrvwJABdegaYlgPyfwO3-5" target="lrvwJABdegaYlgPyfwO3-9" edge="1">
          <mxGeometry relative="1" as="geometry" />
        </mxCell>
        <mxCell id="lrvwJABdegaYlgPyfwO3-7" style="edgeStyle=orthogonalEdgeStyle;rounded=0;sketch=1;orthogonalLoop=1;jettySize=auto;html=1;exitX=1;exitY=0.5;exitDx=0;exitDy=0;" parent="XCWa_HtbkVox2BqZ_yOD-9" source="lrvwJABdegaYlgPyfwO3-8" target="lrvwJABdegaYlgPyfwO3-9" edge="1">
          <mxGeometry relative="1" as="geometry" />
        </mxCell>
        <mxCell id="lrvwJABdegaYlgPyfwO3-10" style="edgeStyle=orthogonalEdgeStyle;rounded=0;sketch=1;orthogonalLoop=1;jettySize=auto;html=1;exitX=1;exitY=0.5;exitDx=0;exitDy=0;" parent="XCWa_HtbkVox2BqZ_yOD-9" source="XCWa_HtbkVox2BqZ_yOD-23" target="lrvwJABdegaYlgPyfwO3-3" edge="1">
          <mxGeometry relative="1" as="geometry" />
        </mxCell>
        <mxCell id="XCWa_HtbkVox2BqZ_yOD-23" value="DriverManager" style="swimlane;fontStyle=0;childLayout=stackLayout;horizontal=1;startSize=26;fillColor=#d5e8d4;horizontalStack=0;resizeParent=1;resizeParentMax=0;resizeLast=0;collapsible=1;marginBottom=0;rounded=1;sketch=1;fillStyle=solid;fontFamily=霞鹜文楷;fontSize=15;strokeColor=#82b366;" parent="XCWa_HtbkVox2BqZ_yOD-9" vertex="1">
          <mxGeometry x="10" y="280" width="160" height="60" as="geometry" />
        </mxCell>
        <mxCell id="lrvwJABdegaYlgPyfwO3-11" value="«interface»&lt;br style=&quot;font-size: 15px;&quot;&gt;&lt;b style=&quot;font-size: 15px;&quot;&gt;AutoCloseable&lt;/b&gt;" style="html=1;sketch=1;rounded=1;fillColor=#dae8fc;strokeColor=#6c8ebf;fontFamily=霞鹜文楷;fontSize=15;" parent="XCWa_HtbkVox2BqZ_yOD-9" vertex="1">
          <mxGeometry x="430" y="45" width="140" height="60" as="geometry" />
        </mxCell>
        <mxCell id="lrvwJABdegaYlgPyfwO3-13" style="edgeStyle=orthogonalEdgeStyle;rounded=0;sketch=1;orthogonalLoop=1;jettySize=auto;html=1;exitX=0.5;exitY=0;exitDx=0;exitDy=0;entryX=0.5;entryY=1;entryDx=0;entryDy=0;shape=arrow;" parent="XCWa_HtbkVox2BqZ_yOD-9" source="lrvwJABdegaYlgPyfwO3-5" target="lrvwJABdegaYlgPyfwO3-11" edge="1">
          <mxGeometry relative="1" as="geometry" />
        </mxCell>
        <mxCell id="XCWa_HtbkVox2BqZ_yOD-19" style="edgeStyle=orthogonalEdgeStyle;rounded=0;orthogonalLoop=1;jettySize=auto;html=1;exitX=0;exitY=0.5;exitDx=0;exitDy=0;entryX=1;entryY=0.5;entryDx=0;entryDy=0;fontFamily=霞鹜文楷;fontSize=15;" parent="1" source="XCWa_HtbkVox2BqZ_yOD-15" target="XCWa_HtbkVox2BqZ_yOD-9" edge="1">
          <mxGeometry relative="1" as="geometry" />
        </mxCell>
        <mxCell id="XCWa_HtbkVox2BqZ_yOD-20" value="实现" style="edgeLabel;html=1;align=center;verticalAlign=middle;resizable=0;points=[];fontSize=15;fontFamily=霞鹜文楷;" parent="XCWa_HtbkVox2BqZ_yOD-19" vertex="1" connectable="0">
          <mxGeometry x="-0.1368" y="-1" relative="1" as="geometry">
            <mxPoint as="offset" />
          </mxGeometry>
        </mxCell>
        <mxCell id="XCWa_HtbkVox2BqZ_yOD-15" value="数据库生产厂商" style="swimlane;rounded=1;sketch=1;fillStyle=solid;fontFamily=霞鹜文楷;fontSize=15;fillColor=#dae8fc;strokeColor=#6c8ebf;" parent="1" vertex="1">
          <mxGeometry x="720" y="140" width="530" height="280" as="geometry">
            <mxRectangle x="720" y="140" width="150" height="30" as="alternateBounds" />
          </mxGeometry>
        </mxCell>
        <mxCell id="XCWa_HtbkVox2BqZ_yOD-10" value="" style="aspect=fixed;html=1;points=[];align=center;image;fontSize=12;image=img/lib/azure2/databases/Azure_Database_MySQL_Server.svg;rounded=1;sketch=1;fillStyle=solid;fontFamily=霞鹜文楷;" parent="XCWa_HtbkVox2BqZ_yOD-15" vertex="1">
          <mxGeometry x="30" y="55" width="127.5" height="170" as="geometry" />
        </mxCell>
        <mxCell id="XCWa_HtbkVox2BqZ_yOD-11" value="" style="aspect=fixed;html=1;points=[];align=center;image;fontSize=12;image=img/lib/azure2/databases/Azure_Database_MariaDB_Server.svg;rounded=1;sketch=1;fillStyle=solid;fontFamily=霞鹜文楷;" parent="XCWa_HtbkVox2BqZ_yOD-15" vertex="1">
          <mxGeometry x="213.13" y="57.5" width="123.75" height="165" as="geometry" />
        </mxCell>
        <mxCell id="XCWa_HtbkVox2BqZ_yOD-12" value="" style="aspect=fixed;html=1;points=[];align=center;image;fontSize=12;image=img/lib/azure2/databases/Azure_Database_PostgreSQL_Server.svg;rounded=1;sketch=1;fillStyle=solid;fontFamily=霞鹜文楷;" parent="XCWa_HtbkVox2BqZ_yOD-15" vertex="1">
          <mxGeometry x="390" y="60" width="120" height="160" as="geometry" />
        </mxCell>
      </root>
    </mxGraphModel>
  </diagram>
</mxfile>
